<svg width="96" height="96" viewBox="0 0 96 96" fill="none" xmlns="http://www.w3.org/2000/svg">
  <rect x="6" y="6" width="84" height="84" rx="24" fill="#0E1712"/>
  <rect x="6.75" y="6.75" width="82.5" height="82.5" rx="23.25" stroke="#EAF3E8" stroke-opacity=".18" stroke-width="1.5"/>
  <path d="M48 18L61.5 32.1L78 36L65.1 48L68.7 66L48 56.4L27.3 66L30.9 48L18 36L34.5 32.1L48 18Z" fill="#F8FBF4"/>
  <path d="M48 24.6L58 35.1L70.2 38L60.6 46.9L63.2 60.2L48 53.1L32.8 60.2L35.4 46.9L25.8 38L38 35.1L48 24.6Z" fill="#2D6B4D"/>
  <path d="M48 31.5L55.2 39.1L64 41.2L57.1 47.6L59 57.2L48 52.1L37 57.2L38.9 47.6L32 41.2L40.8 39.1L48 31.5Z" fill="#B8E986"/>
  <circle cx="48" cy="46.5" r="6.6" fill="#0E1712"/>
  <circle cx="48" cy="46.5" r="2.4" fill="#F8FBF4"/>
</svg>
